<?xml version="1.0" standalone="no"?>
<!DOCTYPE svg PUBLIC "-//W3C//DTD SVG 20010904//EN"
 "http://www.w3.org/TR/2001/REC-SVG-20010904/DTD/svg10.dtd">
<svg version="1.0" xmlns="http://www.w3.org/2000/svg"
 width="960.000000pt" height="960.000000pt" viewBox="0 0 960.000000 960.000000"
 preserveAspectRatio="xMidYMid meet">
<metadata>
Created by potrace 1.14, written by Peter Selinger 2001-2017
</metadata>
<g transform="translate(0.000000,960.000000) scale(0.100000,-0.100000)"
fill="#000000" stroke="none">
<path d="M4715 9057 c-44 -35 -483 -373 -975 -752 -492 -379 -1277 -984 -1745
-1344 -467 -360 -1108 -853 -1422 -1095 l-573 -441 0 -753 c0 -581 3 -751 12
-746 11 7 454 348 2538 1953 382 294 967 745 1300 1001 333 256 683 525 778
599 l172 133 428 -329 c235 -181 870 -671 1412 -1088 542 -417 1356 -1044
1810 -1394 454 -349 893 -687 976 -751 83 -64 156 -120 162 -124 9 -5 12 171
12 746 l0 754 -787 606 c-434 333 -1155 888 -1603 1234 -2015 1551 -2408 1854
-2412 1854 -1 -1 -39 -29 -83 -63z"/>
<path d="M3933 6087 c-473 -353 -1282 -955 -1797 -1337 l-935 -695 -1 -1787 0
-1788 1200 0 1200 0 0 1190 0 1190 1200 0 1200 0 0 -1190 0 -1190 1200 0 1200
0 0 1788 -1 1787 -1795 1335 c-988 734 -1798 1336 -1802 1337 -4 1 -395 -287
-869 -640z"/>
</g>
</svg>
