<svg width="27" height="24" viewBox="0 0 27 24" fill="none" xmlns="http://www.w3.org/2000/svg">
<path d="M24.1771 0.333328H2.68634C1.20885 0.333328 0.0134317 1.64583 0.0134317 3.24999L0 20.75C0 22.3542 1.20885 23.6667 2.68634 23.6667H24.1771C25.6546 23.6667 26.8634 22.3542 26.8634 20.75V3.24999C26.8634 1.64583 25.6546 0.333328 24.1771 0.333328ZM23.6398 6.53124L14.1436 12.9771C13.7138 13.2687 13.1496 13.2687 12.7198 12.9771L3.22361 6.53124C2.88782 6.29791 2.68634 5.90416 2.68634 5.48125C2.68634 4.50416 3.66686 3.92083 4.43247 4.43124L12.87 10.1602C13.2091 10.3905 13.6543 10.3905 13.9935 10.1602L22.431 4.43124C23.1966 3.92083 24.1771 4.50416 24.1771 5.48125C24.1771 5.90416 23.9756 6.29791 23.6398 6.53124Z" fill="#2C698D"/>
</svg>
