<svg width="283" height="29" viewBox="0 0 283 29" fill="none" xmlns="http://www.w3.org/2000/svg">
<path d="M36.9641 23.9848L36.9305 8.58482L40.4725 8.57709L40.4944 18.6091L47.8205 8.56104L51.1645 8.55374L51.1981 23.9537L47.6781 23.9614L47.6563 13.9514L40.3301 23.9774L36.9641 23.9848ZM65.5588 8.52231L69.1228 8.51452L69.1564 23.9145L65.5924 23.9223L65.5588 8.52231ZM58.5964 23.9375L55.0325 23.9453L54.9988 8.54537L58.5628 8.53758L58.5964 23.9375ZM65.8426 17.6077L58.3187 17.6241L58.3121 14.6101L65.8361 14.5937L65.8426 17.6077ZM83.1119 22.3L83.0881 11.388L77.8081 11.3996L77.747 13.6437C77.7051 14.5971 77.6411 15.4993 77.5549 16.3501C77.4834 17.201 77.3678 17.9785 77.208 18.6829C77.0482 19.3726 76.8368 19.9597 76.5739 20.4443C76.3256 20.9288 76.011 21.2742 75.6301 21.4803L71.8231 21.0047C72.3511 21.0182 72.7834 20.8339 73.1199 20.4518C73.471 20.0697 73.7485 19.5338 73.9524 18.844C74.1562 18.1396 74.301 17.3179 74.387 16.379C74.4876 15.4402 74.5587 14.4207 74.6003 13.3206L74.7658 8.5022L86.6018 8.47635L86.6319 22.2923L83.1119 22.3ZM71.3304 27.0997L71.3391 21.0057L88.785 20.9676L88.7983 27.0616L85.4983 27.0688L85.4914 23.8788L74.6234 23.9025L74.6304 27.0925L71.3304 27.0997ZM91.7122 20.9612C92.5634 21.2087 93.2749 21.2805 93.8467 21.1766C94.4331 21.058 94.9529 20.6461 95.406 19.9412L96.1516 18.8175L96.4807 18.4428L101.563 8.44368L105.061 8.43605L98.5315 20.6383C97.9473 21.7396 97.2525 22.5845 96.4471 23.1729C95.6564 23.7613 94.7844 24.0932 93.8312 24.1686C92.8781 24.2587 91.8877 24.0922 90.8601 23.6691L91.7122 20.9612ZM96.4212 21.4129L89.4409 8.47015L93.2469 8.46184L98.3735 18.7907L96.4212 21.4129ZM113.899 24.0808C112.711 24.0834 111.603 23.8951 110.576 23.516C109.563 23.1223 108.682 22.5668 107.932 21.8498C107.182 21.1328 106.594 20.2907 106.166 19.3237C105.754 18.3566 105.546 17.2937 105.544 16.135C105.541 14.9763 105.744 13.9126 106.153 12.9437C106.576 11.9747 107.161 11.1301 107.907 10.4098C108.668 9.6895 109.554 9.13757 110.565 8.75403C111.577 8.35582 112.683 8.1554 113.886 8.15277C115.221 8.14986 116.424 8.3819 117.496 8.84889C118.582 9.30119 119.493 9.97387 120.228 10.8669L117.945 12.9839C117.415 12.3837 116.828 11.9377 116.182 11.6458C115.536 11.3392 114.831 11.1867 114.069 11.1884C113.35 11.19 112.69 11.3087 112.089 11.5447C111.489 11.7807 110.969 12.1192 110.53 12.5601C110.091 13.0011 109.747 13.5225 109.499 14.1244C109.266 14.7262 109.15 15.3938 109.151 16.1271C109.153 16.8605 109.272 17.5275 109.508 18.1284C109.759 18.7291 110.104 19.2491 110.545 19.6881C110.986 20.1271 111.508 20.4633 112.109 20.6967C112.711 20.93 113.372 21.0459 114.09 21.0444C114.853 21.0427 115.557 20.8945 116.201 20.5997C116.846 20.2903 117.432 19.8271 117.958 19.2099L120.251 21.3169C119.519 22.2132 118.612 22.8972 117.527 23.3689C116.458 23.8405 115.248 24.0778 113.899 24.0808ZM125.751 23.7909L125.722 10.4809L126.537 11.2932L120.817 11.3056L120.811 8.40165L134.165 8.37249L134.171 11.2765L128.451 11.289L129.242 10.4732L129.271 23.7832L125.751 23.7909ZM136.437 23.7676L136.403 8.3676L143.069 8.35305C144.448 8.35004 145.636 8.57477 146.634 9.02726C147.633 9.46508 148.404 10.1014 148.949 10.9362C149.493 11.771 149.767 12.7678 149.769 13.9264C149.772 15.0704 149.502 16.061 148.962 16.8982C148.421 17.7354 147.652 18.3824 146.656 18.8392C145.659 19.2814 144.472 19.504 143.093 19.507L138.407 19.5173L139.988 17.9078L140.001 23.7598L136.437 23.7676ZM139.989 18.3038L138.401 16.6133L142.889 16.6035C143.989 16.6011 144.81 16.3646 145.351 15.8941C145.893 15.4236 146.163 14.7703 146.161 13.9343C146.159 13.0836 145.886 12.4242 145.343 11.9561C144.799 11.4879 143.977 11.2551 142.877 11.2575L138.389 11.2673L139.97 9.56982L139.989 18.3038ZM152.142 23.7333L152.108 8.33331L155.65 8.32557L155.672 18.3575L162.998 8.30953L166.342 8.30223L166.376 23.7022L162.856 23.7099L162.834 13.6999L155.508 23.7259L152.142 23.7333ZM178.988 23.6746L178.977 18.8127L179.859 19.5807L175.635 19.59C174.3 19.5929 173.148 19.3754 172.18 18.9375C171.211 18.4996 170.469 17.8632 169.953 17.0284C169.438 16.1935 169.179 15.1967 169.177 14.038C169.174 12.8354 169.443 11.8081 169.984 10.9563C170.54 10.0897 171.315 9.42803 172.312 8.97119C173.308 8.51435 174.481 8.28445 175.83 8.28151L182.474 8.267L182.508 23.667L178.988 23.6746ZM169.242 23.6959L173.058 18.1656L176.666 18.1577L173.004 23.6877L169.242 23.6959ZM178.975 17.6687L178.959 10.2547L179.841 11.1768L175.925 11.1853C174.913 11.1875 174.136 11.4239 173.594 11.8944C173.067 12.3649 172.805 13.0621 172.807 13.9861C172.809 14.8808 173.067 15.5696 173.581 16.0524C174.096 16.5353 174.851 16.7757 175.849 16.7735L179.853 16.7647L178.975 17.6687ZM185.586 18.8422L185.58 16.0922L191.806 16.0786L191.812 18.8286L185.586 18.8422ZM194.852 23.64L194.819 8.24004L208.855 8.20939L208.888 23.6094L205.346 23.6171L205.317 10.3071L206.133 11.1193L197.553 11.1381L198.365 10.3223L198.394 23.6323L194.852 23.64ZM212.706 23.601L212.672 8.20105L219.338 8.1865C220.717 8.18349 221.905 8.40822 222.904 8.86071C223.902 9.29853 224.673 9.93485 225.218 10.7697C225.762 11.6045 226.036 12.6012 226.038 13.7599C226.041 14.9039 225.772 15.8945 225.231 16.7316C224.69 17.5688 223.922 18.2158 222.925 18.6727C221.929 19.1149 220.741 19.3375 219.363 19.3405L214.677 19.3507L216.257 17.7412L216.27 23.5932L212.706 23.601ZM216.258 18.1372L214.67 16.4467L219.158 16.4369C220.258 16.4345 221.079 16.198 221.621 15.7275C222.162 15.257 222.432 14.6038 222.43 13.7678C222.429 12.9171 222.156 12.2577 221.612 11.7895C221.068 11.3214 220.247 11.0885 219.147 11.0909L214.659 11.1007L216.239 9.40327L216.258 18.1372ZM235.996 23.8142C234.779 23.8168 233.649 23.6213 232.607 23.2276C231.58 22.8338 230.684 22.2784 229.919 21.5614C229.17 20.8444 228.581 20.0023 228.154 19.0353C227.741 18.0682 227.533 17.0126 227.531 15.8686C227.528 14.7246 227.732 13.6682 228.14 12.6993C228.563 11.7304 229.155 10.8857 229.917 10.1654C230.678 9.44507 231.571 8.88579 232.597 8.48754C233.623 8.0893 234.737 7.88887 235.94 7.88624C237.157 7.88359 238.272 8.07915 239.285 8.47294C240.312 8.8667 241.201 9.42209 241.951 10.1391C242.715 10.8561 243.311 11.6982 243.738 12.6652C244.165 13.6176 244.38 14.6732 244.383 15.8318C244.385 16.9758 244.175 18.0396 243.752 19.0232C243.329 19.9921 242.737 20.8368 241.975 21.5571C241.229 22.2627 240.343 22.8147 239.317 23.2129C238.306 23.6111 237.199 23.8115 235.996 23.8142ZM235.968 20.7782C236.657 20.7767 237.287 20.658 237.859 20.4221C238.445 20.1861 238.958 19.8477 239.397 19.4067C239.836 18.9658 240.172 18.4444 240.405 17.8425C240.653 17.2406 240.777 16.573 240.775 15.8397C240.773 15.1064 240.647 14.4393 240.397 13.8385C240.161 13.2377 239.822 12.7178 239.381 12.2787C238.955 11.8397 238.448 11.5034 237.861 11.2701C237.274 11.0367 236.636 10.9207 235.946 10.9222C235.257 10.9237 234.619 11.0425 234.033 11.2784C233.461 11.5143 232.956 11.8528 232.517 12.2937C232.078 12.7347 231.735 13.2561 231.487 13.858C231.253 14.4598 231.137 15.1274 231.139 15.8607C231.141 16.5794 231.259 17.2465 231.495 17.862C231.746 18.4628 232.084 18.9827 232.511 19.4218C232.952 19.8608 233.466 20.197 234.053 20.4304C234.64 20.6638 235.278 20.7797 235.968 20.7782ZM247.145 23.5258L247.112 8.12585L250.06 8.11941L256.639 18.9731L255.077 18.9765L261.5 8.09443L264.448 8.08799L264.503 23.4879L261.159 23.4952L261.115 13.2213L261.753 13.2199L256.602 21.8772L255.018 21.8806L249.719 13.2462L250.467 13.2445L250.489 23.5185L247.145 23.5258Z" fill="white"/>
<path d="M30.0341 15.6579L15.0099 4.5678L0.0341925 15.7234L0.0242891 11.1883L15 0.0326741L30.0242 11.1228L30.0341 15.6579ZM26.2832 15.2613L26.3067 26.008L18.8067 26.0244L18.7911 18.8599L11.2911 18.8763L11.3067 26.0408L3.80677 26.0572L3.7833 15.3104L15.0157 7.22582L26.2832 15.2613Z" fill="#E3F6F5"/>
</svg>
