<svg width="36" height="36" viewBox="0 0 36 36" fill="none" xmlns="http://www.w3.org/2000/svg">
<path d="M0.0021997 1.07425C0.000993675 0.521963 0.44773 0.0732707 1.00001 0.0720647L33.9999 2.43614e-06C34.5522 -0.00120359 35.0009 0.445533 35.0021 0.997816L35.0742 33.9977C35.0754 34.55 34.6287 34.9987 34.0764 34.9999L1.07644 35.072C0.52416 35.0732 0.075468 34.6265 0.074262 34.0742L0.0021997 1.07425Z" fill="white"/>
<path fill-rule="evenodd" clip-rule="evenodd" d="M10.8016 20.7944C10.4591 20.4535 10.4579 19.8995 10.7989 19.557L16.9105 13.4186C17.2514 13.0762 17.8055 13.075 18.1479 13.4159L24.2863 19.5275C24.6287 19.8685 24.6299 20.4225 24.289 20.765C23.948 21.1074 23.394 21.1086 23.0515 20.7677L17.5332 15.2734L12.039 20.7917C11.698 21.1342 11.144 21.1354 10.8016 20.7944Z" fill="#558089"/>
</svg>
