<svg width="48" height="49" viewBox="0 0 48 49" fill="none" xmlns="http://www.w3.org/2000/svg">
<path d="M7.21284 44.1705H1.7817C0.964063 44.1705 0.300476 43.4985 0.300476 42.6705V25.6709C0.300476 24.8429 0.964063 24.1709 1.7817 24.1709C8.7059 24.1709 11.929 26.6049 12.0614 26.7088C12.5393 27.0788 12.7506 27.7048 12.5926 28.2928L8.64271 43.0645C8.46891 43.7165 7.88235 44.1705 7.21284 44.1705ZM3.26292 41.1706H6.07921L9.43269 28.6288C8.39979 28.1348 6.38138 27.3988 3.26292 27.2148V41.1706Z" fill="#2C698D"/>
<path d="M25.9751 48.1704C21.5137 48.1704 13.2899 44.7125 7.17547 41.8085C6.43486 41.4565 6.1169 40.5626 6.46449 39.8126C6.81011 39.0626 7.69489 38.7366 8.43352 39.0906C16.5704 42.9565 22.9653 45.1705 25.9751 45.1705C29.9803 45.1705 39.073 40.7886 43.8386 38.2606C43.2896 37.9426 42.472 37.6706 41.2811 37.6706C39.5431 37.6706 37.4003 38.3906 35.3285 39.0866C34.6551 39.3126 33.9836 39.5386 33.318 39.7446C31.8526 40.2026 30.1225 40.6706 28.4418 40.6706C24.2806 40.6706 18.7863 38.6666 18.5552 38.5806C17.785 38.2966 17.388 37.4366 17.6684 36.6586C17.9489 35.8787 18.8001 35.4807 19.5664 35.7607C19.6177 35.7807 24.804 37.6706 28.4418 37.6706C29.7374 37.6706 31.2641 37.2466 32.449 36.8766C33.0929 36.6766 33.7426 36.4586 34.3924 36.2407C36.6873 35.4687 39.0592 34.6707 41.2771 34.6707C46.173 34.6707 47.5338 37.9726 47.5891 38.1146C47.8675 38.8166 47.5831 39.6186 46.9294 39.9846C46.3369 40.3186 32.2101 48.1704 25.9751 48.1704Z" fill="#2C698D"/>
<path d="M32.8871 39.8506C32.0695 39.8506 31.4059 39.1786 31.4059 38.3506V37.4506C31.4059 36.2686 30.5745 35.2366 29.431 35.0007L10.4101 31.0607C9.61027 30.8947 9.09283 30.1028 9.25675 29.2908C9.42068 28.4788 10.2047 27.9608 11.0046 28.1228L30.0254 32.0627C32.5415 32.5827 34.3684 34.8507 34.3684 37.4526V38.3526C34.3684 39.1786 33.7048 39.8506 32.8871 39.8506Z" fill="#2C698D"/>
<path d="M35.8498 28.1708C35.6523 28.1708 35.4567 28.1308 35.2711 28.0508C34.8109 27.8528 24 23.0869 24 13.2791V5.24331C24 4.60132 24.4029 4.03133 25.0053 3.82334L35.3738 0.251409C35.6819 0.143411 36.0176 0.143411 36.3257 0.251409L46.6943 3.82334C47.2966 4.02933 47.6995 4.59932 47.6995 5.24331V13.2791C47.6995 23.0869 36.8886 27.8548 36.4284 28.0528C36.2428 28.1308 36.0472 28.1708 35.8498 28.1708ZM26.9624 6.31728V13.2791C26.9624 19.975 33.7859 23.9609 35.8478 25.0109C37.9057 23.9549 44.7371 19.949 44.7371 13.2791V6.31728L35.8498 3.25535L26.9624 6.31728Z" fill="#2C698D"/>
<path d="M35.356 19.171C34.9649 19.171 34.5858 19.013 34.3093 18.731L30.3593 14.7311C29.7807 14.1451 29.7807 13.1951 30.3593 12.6091C30.938 12.0232 31.8761 12.0232 32.4548 12.6091L35.198 15.3871L40.0959 8.77123C40.5817 8.10924 41.5119 7.97325 42.1696 8.47124C42.8233 8.96922 42.9556 9.9092 42.4639 10.5712L36.539 18.571C36.2822 18.919 35.8892 19.137 35.4587 19.167C35.4251 19.171 35.3915 19.171 35.356 19.171Z" fill="#2C698D"/>
</svg>
