<svg width="42" height="49" viewBox="0 0 42 49" fill="none" xmlns="http://www.w3.org/2000/svg">
<path d="M40.7664 29.8892C41.4274 29.142 41.8301 28.1557 41.8301 27.0767C41.8301 24.7507 39.9609 22.8579 37.6641 22.8579H29.5783C30.3791 20.397 30.7207 17.1317 30.7207 15.732V14.3267C30.7207 11.2254 28.2285 8.70166 25.166 8.70166H23.7773C23.1404 8.70166 22.5849 9.14041 22.4303 9.76666L21.674 12.8313C20.6139 17.1232 17.2487 21.8585 13.7659 22.7192C13.1559 21.1554 11.6496 20.0454 9.89062 20.0454H1.55859C0.792047 20.0454 0.169922 20.6754 0.169922 21.4517V46.7642C0.169922 47.5404 0.792047 48.1704 1.55859 48.1704H9.89062C11.5468 48.1704 12.98 47.187 13.6511 45.7657L18.4226 47.3763C19.9826 47.9032 21.6082 48.1704 23.2534 48.1704H34.8867C37.1836 48.1704 39.0527 46.2776 39.0527 43.9517C39.0527 43.4032 38.949 42.8782 38.7602 42.3973C40.5266 41.9088 41.8301 40.2692 41.8301 38.3267C41.8301 37.2476 41.4274 36.2613 40.7664 35.5142C41.4274 34.767 41.8301 33.7807 41.8301 32.7017C41.8301 31.6226 41.4274 30.6363 40.7664 29.8892ZM11.2793 43.9517C11.2793 44.727 10.6562 45.3579 9.89062 45.3579H2.94727V22.8579H9.89062C10.6562 22.8579 11.2793 23.4888 11.2793 24.2642V43.9517ZM34.8867 31.2954H37.6641C38.4297 31.2954 39.0527 31.9263 39.0527 32.7017C39.0527 33.477 38.4297 34.1079 37.6641 34.1079H34.8867C34.1202 34.1079 33.498 34.7379 33.498 35.5142C33.498 36.2904 34.1202 36.9204 34.8867 36.9204H37.6641C38.4297 36.9204 39.0527 37.5513 39.0527 38.3267C39.0527 39.102 38.4297 39.7329 37.6641 39.7329H34.8867C34.1202 39.7329 33.498 40.3629 33.498 41.1392C33.498 41.9154 34.1202 42.5454 34.8867 42.5454C35.6523 42.5454 36.2754 43.1763 36.2754 43.9517C36.2754 44.727 35.6523 45.3579 34.8867 45.3579H23.2534C21.9073 45.3579 20.5769 45.1395 19.3003 44.7082L14.0566 42.9382V25.5373C16.235 25.1182 18.3671 23.7213 20.2918 21.4348C22.1711 19.2017 23.6949 16.241 24.368 13.5138L24.8614 11.5142H25.166C26.6973 11.5142 27.9434 12.776 27.9434 14.3267V15.732C27.9434 17.6201 27.3601 21.2417 26.6139 22.8579H23.7773C23.0108 22.8579 22.3887 23.4879 22.3887 24.2642C22.3887 25.0404 23.0108 25.6704 23.7773 25.6704H37.6641C38.4297 25.6704 39.0527 26.3013 39.0527 27.0767C39.0527 27.852 38.4297 28.4829 37.6641 28.4829H34.8867C34.1202 28.4829 33.498 29.1129 33.498 29.8892C33.498 30.6654 34.1202 31.2954 34.8867 31.2954Z" fill="#2C698D"/>
<path d="M7.11328 42.5454C7.88022 42.5454 8.50195 41.9158 8.50195 41.1392C8.50195 40.3625 7.88022 39.7329 7.11328 39.7329C6.34634 39.7329 5.72461 40.3625 5.72461 41.1392C5.72461 41.9158 6.34634 42.5454 7.11328 42.5454Z" fill="#2C698D"/>
<path d="M26.5547 0.17041C25.7878 0.17041 25.166 0.800035 25.166 1.57666V4.48291C25.166 5.25954 25.7878 5.88916 26.5547 5.88916C27.3216 5.88916 27.9434 5.25954 27.9434 4.48291V1.57666C27.9434 0.800035 27.3216 0.17041 26.5547 0.17041Z" fill="#2C698D"/>
<path d="M20.663 6.37178L18.6991 4.38306C18.1569 3.83388 17.2776 3.83388 16.7353 4.38306C16.193 4.93225 16.193 5.82259 16.7353 6.37178L18.6991 8.3605C19.2414 8.90959 20.1208 8.90969 20.663 8.3605C21.2053 7.81131 21.2053 6.92097 20.663 6.37178Z" fill="#2C698D"/>
<path d="M36.374 4.38306C35.8318 3.83388 34.9525 3.83388 34.4102 4.38306L32.4463 6.37169C31.904 6.92088 31.904 7.81122 32.4463 8.36041C32.9885 8.9096 33.8678 8.90969 34.4102 8.3605L36.374 6.37178C36.9164 5.8226 36.9164 4.93225 36.374 4.38306Z" fill="#2C698D"/>
</svg>
