<svg width="50" height="52" viewBox="0 0 50 52" fill="none" xmlns="http://www.w3.org/2000/svg">
<path d="M18.1255 32.6504L21.9588 36.2504L32.181 26.6504" stroke="#2C698D" stroke-width="3" stroke-linecap="round" stroke-linejoin="round"/>
<path d="M19.8889 11.7704H30.1112C35.2223 11.7704 35.2223 9.37041 35.2223 6.97041C35.2223 2.17041 32.6667 2.17041 30.1112 2.17041H19.8889C17.3334 2.17041 14.7778 2.17041 14.7778 6.97041C14.7778 11.7704 17.3334 11.7704 19.8889 11.7704Z" stroke="#2C698D" stroke-width="3" stroke-miterlimit="10" stroke-linecap="round" stroke-linejoin="round"/>
<path d="M35.2222 7.01831C43.7322 7.45031 48 10.4023 48 21.3703V35.7703C48 45.3703 45.4444 50.1703 32.6667 50.1703H17.3333C4.55555 50.1703 2 45.3703 2 35.7703V21.3703C2 10.4263 6.26778 7.45031 14.7778 7.01831" stroke="#2C698D" stroke-width="3" stroke-miterlimit="10" stroke-linecap="round" stroke-linejoin="round"/>
</svg>
