<svg width="480" height="481" viewBox="0 0 480 481" fill="none" xmlns="http://www.w3.org/2000/svg">
<path d="M440.48 324.96L364.32 300.8C354.599 297.678 344.213 297.249 334.268 299.559C324.322 301.869 315.189 306.832 307.84 313.92L277.6 343.04C254.788 330.183 233.11 315.41 212.8 298.88C200.977 289.436 190.244 278.703 180.8 266.88C164.219 246.857 149.391 225.444 136.48 202.88L165.6 172.8C172.687 165.417 177.647 156.256 179.956 146.286C182.266 136.316 181.839 125.907 178.72 116.16L155.04 39.68C150.707 26.1226 141.456 14.6785 129.107 7.60108C116.759 0.523636 102.208 -1.67432 88.32 1.43999L56.32 8.63999C47.0734 10.8927 38.5387 15.4263 31.4953 21.8268C24.452 28.2273 19.1247 36.2905 16 45.28C-47.04 217.28 99.68 355.2 112.8 368C122.72 378.88 218.4 480.8 348.32 480.8C377.894 480.647 407.205 475.229 434.88 464.8C443.909 461.582 451.983 456.143 458.358 448.985C464.733 441.827 469.205 433.18 471.36 423.84L478.56 391.84C481.689 377.952 479.518 363.396 472.474 351.024C465.43 338.653 454.02 329.357 440.48 324.96ZM448 384L440.8 416C439.85 420.126 437.891 423.953 435.098 427.136C432.306 430.319 428.767 432.76 424.8 434.24C269.12 490.72 138.4 346.4 136.8 344.96L135.36 343.52C133.92 342.24 -10.4 211.52 46.08 55.52C47.5732 51.6502 49.9844 48.2011 53.106 45.4697C56.2277 42.7383 59.9662 40.8063 64 39.84L96 32C97.5952 31.8243 99.2049 31.8243 100.8 32C106.081 32.0294 111.22 33.7118 115.495 36.811C119.771 39.9102 122.969 44.2706 124.64 49.28L148.8 125.44C150.123 129.688 150.287 134.212 149.274 138.544C148.261 142.876 146.109 146.859 143.04 150.08L106.24 188.32C104.083 190.542 102.618 193.343 102.021 196.382C101.425 199.421 101.723 202.567 102.88 205.44C117.07 235.107 134.973 262.849 156.16 288C167.06 301.46 179.34 313.74 192.8 324.64C217.702 345.77 245.173 363.672 274.56 377.92C277.433 379.077 280.579 379.375 283.618 378.779C286.657 378.182 289.458 376.717 291.68 374.56L329.92 337.92C333.131 334.78 337.133 332.571 341.501 331.529C345.869 330.486 350.438 330.649 354.72 332L430.72 356.16C436.455 357.964 441.353 361.766 444.524 366.875C447.695 371.983 448.928 378.06 448 384Z" fill="white"/>
</svg>
