<svg width="273" height="33" viewBox="0 0 273 33" fill="none" xmlns="http://www.w3.org/2000/svg">
<path d="M38.914 26.8477V10.3095H42.456V21.0829L49.804 10.3095H53.148V26.8477H49.628V16.0979L42.28 26.8477H38.914ZM67.7624 10.3095H71.3264V26.8477H67.7624V10.3095ZM60.7664 26.8477H57.2024V10.3095H60.7664V26.8477ZM68.0264 20.067H60.5024V16.8303H68.0264V20.067ZM85.5054 25.1466V13.4281H80.2254L80.1594 15.838C80.1154 16.8617 80.0494 17.8304 79.9614 18.744C79.888 19.6575 79.7707 20.4923 79.6094 21.2483C79.448 21.9885 79.2354 22.6186 78.9714 23.1384C78.722 23.6582 78.4067 24.0283 78.0254 24.2488L74.2194 23.729C74.7474 23.7448 75.18 23.5479 75.5174 23.1384C75.8694 22.7289 76.148 22.1539 76.3534 21.4137C76.5587 20.6577 76.7054 19.7757 76.7934 18.7676C76.896 17.7595 76.9694 16.6649 77.0134 15.4836L77.1894 10.3095H89.0254V25.1466H85.5054ZM73.7134 30.2734L73.7354 23.729H91.1814V30.2734H87.8814V26.8477H77.0134V30.2734H73.7134ZM94.3286 23.729C95.1792 23.9968 95.8906 24.0756 96.4626 23.9653C97.0492 23.8393 97.5699 23.3983 98.0246 22.6422L98.7726 21.4373L99.1026 21.0357L104.207 10.3095H107.705L101.149 23.3983C100.562 24.5796 99.8652 25.4852 99.0586 26.1153C98.2666 26.7453 97.3939 27.0997 96.4406 27.1784C95.4872 27.2729 94.4972 27.0918 93.4706 26.635L94.3286 23.729ZM99.0366 24.2252L92.0846 10.3095H95.8906L100.995 21.4137L99.0366 24.2252ZM116.728 27.1312C115.54 27.1312 114.433 26.9264 113.406 26.5169C112.394 26.0916 111.514 25.4931 110.766 24.7213C110.018 23.9495 109.432 23.0439 109.006 22.0043C108.596 20.9648 108.39 19.8229 108.39 18.5786C108.39 17.3342 108.596 16.1924 109.006 15.1528C109.432 14.1133 110.018 13.2076 110.766 12.4358C111.529 11.664 112.416 11.0734 113.428 10.6639C114.44 10.2386 115.548 10.026 116.75 10.026C118.085 10.026 119.288 10.278 120.358 10.782C121.444 11.2703 122.353 11.9948 123.086 12.9556L120.798 15.2237C120.27 14.578 119.684 14.0975 119.038 13.7825C118.393 13.4517 117.689 13.2864 116.926 13.2864C116.208 13.2864 115.548 13.4123 114.946 13.6644C114.345 13.9164 113.824 14.2787 113.384 14.7512C112.944 15.2237 112.6 15.7829 112.35 16.4286C112.116 17.0744 111.998 17.7911 111.998 18.5786C111.998 19.3661 112.116 20.0828 112.35 20.7285C112.6 21.3743 112.944 21.9335 113.384 22.406C113.824 22.8785 114.345 23.2407 114.946 23.4928C115.548 23.7448 116.208 23.8708 116.926 23.8708C117.689 23.8708 118.393 23.7132 119.038 23.3983C119.684 23.0675 120.27 22.5714 120.798 21.9098L123.086 24.1779C122.353 25.1387 121.444 25.8712 120.358 26.3751C119.288 26.8791 118.078 27.1312 116.728 27.1312ZM128.801 26.8477V12.554L129.615 13.4281H123.895V10.3095H137.249V13.4281H131.529L132.321 12.554V26.8477H128.801ZM139.707 26.8477V10.3095H146.373C147.751 10.3095 148.939 10.5536 149.937 11.0419C150.934 11.5144 151.704 12.1996 152.247 13.0974C152.789 13.9951 153.061 15.0661 153.061 16.3105C153.061 17.539 152.789 18.6022 152.247 19.5C151.704 20.3978 150.934 21.0908 149.937 21.5791C148.939 22.0516 147.751 22.2878 146.373 22.2878H141.687L143.271 20.5632V26.8477H139.707ZM143.271 20.9884L141.687 19.1692H146.175C147.275 19.1692 148.096 18.9172 148.639 18.4132C149.181 17.9092 149.453 17.2083 149.453 16.3105C149.453 15.3969 149.181 14.6881 148.639 14.1842C148.096 13.6802 147.275 13.4281 146.175 13.4281H141.687L143.271 11.6089V20.9884ZM155.632 26.8477V10.3095H159.174V21.0829L166.522 10.3095H169.866V26.8477H166.346V16.0979L158.998 26.8477H155.632ZM182.698 26.8477V21.6263L183.578 22.4532H179.354C178.019 22.4532 176.868 22.217 175.9 21.7445C174.932 21.2719 174.191 20.5868 173.678 19.689C173.165 18.7912 172.908 17.7202 172.908 16.4759C172.908 15.1843 173.179 14.0818 173.722 13.1682C174.279 12.239 175.057 11.5302 176.054 11.0419C177.051 10.5536 178.225 10.3095 179.574 10.3095H186.218V26.8477H182.698ZM172.952 26.8477L176.78 20.9175H180.388L176.714 26.8477H172.952ZM182.698 20.3978V12.4358L183.578 13.4281H179.662C178.65 13.4281 177.873 13.6802 177.33 14.1842C176.802 14.6881 176.538 15.4363 176.538 16.4286C176.538 17.3894 176.795 18.1297 177.308 18.6495C177.821 19.1692 178.577 19.4291 179.574 19.4291H183.578L182.698 20.3978ZM189.526 21.6736V18.7203H195.752V21.6736H189.526ZM199.003 26.8477V10.3095H213.039V26.8477H209.497V12.554L210.311 13.4281H201.731L202.545 12.554V26.8477H199.003ZM217.076 26.8477V10.3095H223.742C225.121 10.3095 226.309 10.5536 227.306 11.0419C228.304 11.5144 229.074 12.1996 229.616 13.0974C230.159 13.9951 230.43 15.0661 230.43 16.3105C230.43 17.539 230.159 18.6022 229.616 19.5C229.074 20.3978 228.304 21.0908 227.306 21.5791C226.309 22.0516 225.121 22.2878 223.742 22.2878H219.056L220.64 20.5632V26.8477H217.076ZM220.64 20.9884L219.056 19.1692H223.544C224.644 19.1692 225.466 18.9172 226.008 18.4132C226.551 17.9092 226.822 17.2083 226.822 16.3105C226.822 15.3969 226.551 14.6881 226.008 14.1842C225.466 13.6802 224.644 13.4281 223.544 13.4281H219.056L220.64 11.6089V20.9884ZM240.586 27.1312C239.369 27.1312 238.239 26.9185 237.198 26.4933C236.171 26.068 235.277 25.4695 234.514 24.6977C233.766 23.9259 233.179 23.0203 232.754 21.9807C232.343 20.9412 232.138 19.8071 232.138 18.5786C232.138 17.35 232.343 16.216 232.754 15.1764C233.179 14.1369 233.773 13.2313 234.536 12.4595C235.299 11.6876 236.193 11.0892 237.22 10.6639C238.247 10.2386 239.361 10.026 240.564 10.026C241.781 10.026 242.896 10.2386 243.908 10.6639C244.935 11.0892 245.822 11.6876 246.57 12.4595C247.333 13.2313 247.927 14.1369 248.352 15.1764C248.777 16.2002 248.99 17.3342 248.99 18.5786C248.99 19.8071 248.777 20.949 248.352 22.0043C247.927 23.0439 247.333 23.9495 246.57 24.7213C245.822 25.4774 244.935 26.068 243.908 26.4933C242.896 26.9185 241.789 27.1312 240.586 27.1312ZM240.564 23.8708C241.253 23.8708 241.884 23.7448 242.456 23.4928C243.043 23.2407 243.556 22.8785 243.996 22.406C244.436 21.9335 244.773 21.3743 245.008 20.7285C245.257 20.0828 245.382 19.3661 245.382 18.5786C245.382 17.7911 245.257 17.0744 245.008 16.4286C244.773 15.7829 244.436 15.2237 243.996 14.7512C243.571 14.2787 243.065 13.9164 242.478 13.6644C241.891 13.4123 241.253 13.2864 240.564 13.2864C239.875 13.2864 239.237 13.4123 238.65 13.6644C238.078 13.9164 237.572 14.2787 237.132 14.7512C236.692 15.2237 236.347 15.7829 236.098 16.4286C235.863 17.0744 235.746 17.7911 235.746 18.5786C235.746 19.3504 235.863 20.067 236.098 20.7285C236.347 21.3743 236.685 21.9335 237.11 22.406C237.55 22.8785 238.063 23.2407 238.65 23.4928C239.237 23.7448 239.875 23.8708 240.564 23.8708ZM251.956 26.8477V10.3095H254.904L261.46 21.9807H259.898L266.344 10.3095H269.292L269.314 26.8477H265.97L265.948 15.8143H266.586L261.416 25.0993H259.832L254.552 15.8143H255.3V26.8477H251.956Z" fill="#272643"/>
<path d="M31.875 17.462L15.9375 5.05763L0 17.462V12.4044L15.9375 0L31.875 12.4044V17.462ZM27.8906 17.0106V28.9955H19.9219V21.0055H11.9531V28.9955H3.98438V17.0106L15.9375 8.0219L27.8906 17.0106Z" fill="#2C698D"/>
</svg>
