<svg width="480" height="481" viewBox="0 0 480 481" fill="none" xmlns="http://www.w3.org/2000/svg">
<path d="M440.48 324.96L364.32 300.8C354.599 297.678 344.213 297.249 334.268 299.559C324.322 301.869 315.189 306.832 307.84 313.92L277.6 343.04C254.788 330.183 233.11 315.41 212.8 298.88C200.977 289.436 190.244 278.703 180.8 266.88C164.219 246.857 149.391 225.444 136.48 202.88L165.6 172.8C172.687 165.417 177.647 156.256 179.956 146.286C182.266 136.316 181.839 125.907 178.72 116.16L155.04 39.68C150.707 26.1226 141.456 14.6785 129.107 7.60108C116.759 0.523636 102.208 -1.67432 88.32 1.43999L56.32 8.63999C47.0734 10.8927 38.5387 15.4263 31.4953 21.8268C24.452 28.2273 19.1247 36.2905 16 45.28C-47.04 217.28 99.68 355.2 112.8 368C122.72 378.88 218.4 480.8 348.32 480.8C377.894 480.647 407.205 475.229 434.88 464.8C443.909 461.582 451.983 456.143 458.358 448.985C464.733 441.827 469.205 433.18 471.36 423.84L478.56 391.84C481.689 377.952 479.518 363.396 472.474 351.024C465.43 338.653 454.02 329.357 440.48 324.96ZM448 384L440.8 416C439.85 420.126 437.891 423.953 435.098 427.136C432.306 430.319 428.767 432.76 424.8 434.24C269.12 490.72 138.4 346.4 136.8 344.96L135.36 343.52C133.92 342.24 -10.4 211.52 46.08 55.52C47.5732 51.6502 49.9844 48.2011 53.106 45.4697C56.2277 42.7383 59.9662 40.8063 64 39.84L96 32C97.5952 31.8243 99.2049 31.8243 100.8 32C106.081 32.0294 111.22 33.7118 115.495 36.811C119.771 39.9102 122.969 44.2706 124.64 49.28L148.8 125.44C150.123 129.688 150.287 134.212 149.274 138.544C148.261 142.876 146.109 146.859 143.04 150.08L106.24 188.32C104.083 190.542 102.618 193.343 102.021 196.382C101.425 199.421 101.723 202.567 102.88 205.44C117.07 235.107 134.973 262.849 156.16 288C167.06 301.46 179.34 313.74 192.8 324.64C217.702 345.77 245.173 363.672 274.56 377.92C277.433 379.077 280.579 379.375 283.618 378.779C286.657 378.182 289.458 376.717 291.68 374.56L329.92 337.92C333.131 334.78 337.133 332.571 341.501 331.529C345.869 330.486 350.438 330.649 354.72 332L430.72 356.16C436.455 357.964 441.353 361.766 444.524 366.875C447.695 371.983 448.928 378.06 448 384Z" fill="#272643" fill-opacity="0.831373"/>
<path d="M432 0H272C259.27 0 247.061 5.05713 238.059 14.0589C229.057 23.0606 224 35.2696 224 48V219.2C223.882 227.16 226.349 234.944 231.03 241.383C235.711 247.822 242.354 252.57 249.962 254.914C257.57 257.258 265.733 257.071 273.226 254.382C280.719 251.693 287.138 246.647 291.52 240L312.64 208H432C444.731 208 456.94 202.943 465.941 193.941C474.943 184.939 480 172.73 480 160V48C480 35.2696 474.943 23.0606 465.941 14.0589C456.94 5.05713 444.731 0 432 0ZM448 160C448 164.243 446.314 168.313 443.314 171.314C440.313 174.314 436.244 176 432 176H304C301.365 176.014 298.774 176.678 296.457 177.934C294.14 179.19 292.17 180.999 290.72 183.2L264.8 221.76C264.186 222.525 263.36 223.092 262.424 223.387C261.489 223.682 260.487 223.694 259.545 223.42C258.603 223.146 257.763 222.599 257.132 221.848C256.501 221.096 256.107 220.175 256 219.2V48C256 43.7565 257.686 39.6869 260.686 36.6863C263.687 33.6857 267.757 32 272 32H432C436.244 32 440.313 33.6857 443.314 36.6863C446.314 39.6869 448 43.7565 448 48V160Z" fill="#272643" fill-opacity="0.831373"/>
<path d="M400 112H304C299.757 112 295.687 113.686 292.686 116.686C289.686 119.687 288 123.757 288 128C288 132.243 289.686 136.313 292.686 139.314C295.687 142.314 299.757 144 304 144H400C404.243 144 408.313 142.314 411.314 139.314C414.314 136.313 416 132.243 416 128C416 123.757 414.314 119.687 411.314 116.686C408.313 113.686 404.243 112 400 112ZM304 96H368C372.243 96 376.313 94.3143 379.314 91.3137C382.314 88.3131 384 84.2435 384 80C384 75.7565 382.314 71.6869 379.314 68.6863C376.313 65.6857 372.243 64 368 64H304C299.757 64 295.687 65.6857 292.686 68.6863C289.686 71.6869 288 75.7565 288 80C288 84.2435 289.686 88.3131 292.686 91.3137C295.687 94.3143 299.757 96 304 96Z" fill="#272643" fill-opacity="0.831373"/>
</svg>
