<svg width="28" height="26" viewBox="0 0 28 26" fill="none" xmlns="http://www.w3.org/2000/svg">
<path d="M28 13C28 11.2928 27.6378 9.60241 26.9343 8.02503C26.2307 6.44795 25.1996 5.01465 23.8995 3.80765C22.5995 2.60031 21.0561 1.64277 19.3575 0.989599C17.659 0.336102 15.8385 0 14 0V2.6C15.4708 2.6 16.9273 2.86914 18.2861 3.39156C19.6449 3.91429 20.8796 4.68044 21.9197 5.64624C22.9596 6.61172 23.7846 7.75843 24.3474 9.02002C24.9103 10.2819 25.2 11.6343 25.2 13H28Z" fill="#2C698D"/>
<path d="M0 10.4001L0.457203 4.45645C0.481352 4.14252 0.509319 3.99937 0.745719 3.79139C0.986092 3.57992 1.25037 2.98647 1.57006 2.96919L8.4 2.6001C9.17319 2.6001 9.8 3.18217 9.8 3.9001V9.1001C9.8 9.81802 9.17319 10.4001 8.4 10.4001H6.6C6.04771 10.4001 5.5946 10.8493 5.65097 11.3988C6.16091 16.3687 10.4378 20.3188 15.8004 20.7592C16.3509 20.8044 16.8 20.3524 16.8 19.8001V18.2001C16.8 17.4822 17.4268 16.9001 18.2 16.9001H23.8C24.5732 16.9001 25.2 17.4822 25.2 18.2001L24.525 23.311C24.5086 23.4352 24.4339 23.5942 24.3616 23.6964C23.9092 24.3361 21.8647 26.0001 21.0812 26.0001H16.8C7.52163 26.0001 0 19.0157 0 10.4001Z" fill="#2C698D"/>
<path d="M21.7606 10.0152C22.1827 10.9617 22.4 11.9761 22.4 13.0002H19.88C19.88 12.2832 19.728 11.5732 19.4324 10.9108C19.1369 10.2482 18.7039 9.64642 18.1577 9.13955C17.6117 8.63238 16.9637 8.23025 16.2502 7.95571C15.5368 7.68149 14.7721 7.54026 14 7.54026V5.2002C15.1031 5.2002 16.1953 5.40205 17.2145 5.79402C18.2336 6.18599 19.1597 6.76046 19.9396 7.48471C20.7197 8.20898 21.3385 9.06877 21.7606 10.0152Z" fill="#2C698D"/>
</svg>
